<svg width="749" height="395" viewBox="0 0 749 395" fill="none" xmlns="http://www.w3.org/2000/svg">
<path d="M87.0506 103.813C110.847 103.813 131.194 112.262 148.092 129.159C164.989 146.057 173.438 166.404 173.438 190.201V258.441C173.438 263.54 171.638 267.789 168.039 271.189C164.439 274.788 160.19 276.588 155.291 276.588H154.841C149.942 276.588 145.692 274.788 142.093 271.189C138.493 267.789 136.693 263.54 136.693 258.441C125.295 270.539 108.748 276.588 87.0506 276.588C63.2541 276.588 42.907 268.139 26.0094 251.242C9.11187 234.344 0.663086 213.997 0.663086 190.201C0.663086 166.404 9.11187 146.057 26.0094 129.159C42.907 112.262 63.2541 103.813 87.0506 103.813ZM87.0506 140.558C73.2526 140.558 61.5043 145.407 51.8057 155.106C42.2071 164.804 37.4078 176.503 37.4078 190.201C37.4078 203.999 42.2071 215.747 51.8057 225.445C61.5043 235.044 73.2526 239.843 87.0506 239.843C100.849 239.843 112.547 235.044 122.146 225.445C131.844 215.747 136.693 203.999 136.693 190.201C136.693 176.503 131.844 164.804 122.146 155.106C112.447 145.407 100.749 140.558 87.0506 140.558Z" fill="black"/>
<path d="M262.765 103.813C267.765 103.813 272.064 105.613 275.663 109.212C279.163 112.812 280.913 117.111 280.913 122.11V122.41C280.913 127.41 279.163 131.659 275.663 135.158C272.064 138.758 267.765 140.558 262.765 140.558H254.217C246.018 140.558 239.069 143.407 233.37 149.106C227.77 154.806 224.921 161.755 224.821 169.953V258.441C224.821 263.54 223.021 267.789 219.422 271.189C215.822 274.788 211.573 276.588 206.673 276.588H206.223C201.324 276.588 197.075 274.788 193.475 271.189C189.876 267.789 188.076 263.54 188.076 258.441V169.953C188.276 151.656 194.725 136.058 207.423 123.16C220.321 110.262 235.919 103.813 254.217 103.813H262.765Z" fill="black"/>
<path d="M364.091 103.813C373.089 103.813 381.788 105.163 390.187 107.862C398.686 110.562 402.935 116.361 402.935 125.26V126.01C402.935 132.109 400.485 136.958 395.586 140.558C392.187 142.957 388.687 144.157 385.088 144.157C383.188 144.157 381.238 143.857 379.239 143.257C374.339 141.658 369.29 140.858 364.091 140.858C350.293 140.858 338.544 145.707 328.846 155.406C319.247 165.104 314.448 176.852 314.448 190.65C314.448 204.349 319.247 216.047 328.846 225.745C338.544 235.444 350.293 240.293 364.091 240.293C369.29 240.293 374.339 239.493 379.239 237.894C381.138 237.294 383.038 236.994 384.938 236.994C388.637 236.994 392.187 238.194 395.586 240.593C400.485 244.193 402.935 249.092 402.935 255.291C402.935 264.09 398.686 269.889 390.187 272.689C381.788 275.288 373.089 276.588 364.091 276.588C340.294 276.588 319.947 268.139 303.049 251.242C286.152 234.344 277.703 213.997 277.703 190.201C277.703 166.404 286.152 146.057 303.049 129.159C319.947 112.262 340.294 103.813 364.091 103.813Z" fill="black"/>
<path d="M535.715 211.001C535.715 211.706 535.462 212.313 534.954 212.82C534.446 213.328 533.84 213.582 533.135 213.582H533.008C532.303 213.582 531.697 213.328 531.189 212.82C530.682 212.313 530.428 211.706 530.428 211.001V187.735C530.428 182.828 532.162 178.626 535.631 175.13C539.1 171.661 543.302 169.926 548.237 169.926C554.103 169.926 559.165 172.718 563.423 178.302C567.653 172.718 572.701 169.926 578.567 169.926C583.502 169.926 587.704 171.661 591.173 175.13C594.642 178.626 596.376 182.828 596.376 187.735V211.001C596.376 211.735 596.136 212.341 595.657 212.82C595.149 213.328 594.529 213.582 593.796 213.582H593.711C593.006 213.582 592.4 213.328 591.892 212.82C591.384 212.313 591.131 211.706 591.131 211.001V187.735C591.131 184.295 589.904 181.348 587.45 178.894C584.997 176.441 582.036 175.214 578.567 175.214C575.126 175.214 572.179 176.441 569.726 178.894C567.272 181.348 566.046 184.295 566.046 187.735V211.001C566.046 211.706 565.792 212.313 565.284 212.82C564.777 213.328 564.17 213.582 563.465 213.582H563.381C562.647 213.582 562.027 213.328 561.519 212.82C561.012 212.313 560.758 211.706 560.758 211.001V187.735C560.758 184.295 559.531 181.348 557.078 178.894C554.624 176.441 551.677 175.214 548.237 175.214C544.796 175.214 541.849 176.441 539.396 178.894C536.942 181.348 535.715 184.295 535.715 187.735V211.001Z" fill="#FF6100"/>
<path d="M621.105 175.299C616.537 175.299 612.631 176.92 609.388 180.163C606.173 183.407 604.566 187.312 604.566 191.881C604.566 192.699 604.707 194.067 604.989 195.984L634.811 182.49C630.807 177.696 626.238 175.299 621.105 175.299ZM640.945 182.702C641.255 183.35 641.283 184.013 641.03 184.69C640.776 185.338 640.324 185.818 639.676 186.128C635.728 187.905 630.539 190.245 624.109 193.15C616.128 196.76 610.46 199.312 607.104 200.807C611.052 205.883 615.719 208.421 621.105 208.421C624.687 208.421 627.93 207.363 630.835 205.248C633.627 203.218 635.587 200.567 636.715 197.296C637.138 196.111 637.984 195.519 639.253 195.519C640.155 195.519 640.874 195.886 641.41 196.619C641.918 197.352 642.017 198.142 641.706 198.988C640.212 203.302 637.603 206.799 633.881 209.478C630.045 212.214 625.787 213.582 621.105 213.582C615.07 213.582 609.924 211.452 605.665 207.194C601.407 202.936 599.278 197.789 599.278 191.754C599.278 185.719 601.407 180.572 605.665 176.314C609.924 172.056 615.07 169.926 621.105 169.926C625.448 169.926 629.425 171.111 633.035 173.48C636.56 175.792 639.196 178.866 640.945 182.702Z" fill="#FF6100"/>
<path d="M665.759 175.299C661.19 175.299 657.285 176.92 654.041 180.163C650.827 183.407 649.219 187.312 649.219 191.881C649.219 196.421 650.827 200.313 654.041 203.556C657.285 206.799 661.19 208.421 665.759 208.421C670.356 208.421 674.248 206.799 677.434 203.556C680.677 200.313 682.299 196.421 682.299 191.881C682.299 187.312 680.677 183.407 677.434 180.163C674.248 176.92 670.356 175.299 665.759 175.299ZM685.006 152.583C685.711 152.583 686.318 152.822 686.825 153.302C687.333 153.81 687.587 154.43 687.587 155.163V191.881C687.558 197.86 685.415 202.978 681.157 207.236C676.898 211.467 671.766 213.582 665.759 213.582C659.724 213.582 654.577 211.452 650.319 207.194C646.061 202.936 643.931 197.789 643.931 191.754C643.931 185.719 646.061 180.572 650.319 176.314C654.577 172.056 659.724 169.926 665.759 169.926C671.258 169.926 676.772 172.38 682.299 177.287V155.163C682.299 154.43 682.553 153.81 683.06 153.302C683.568 152.822 684.174 152.583 684.879 152.583H685.006Z" fill="#FF6100"/>
<path d="M695.988 169.926C696.693 169.926 697.299 170.18 697.807 170.688C698.314 171.195 698.568 171.816 698.568 172.549V211.001C698.568 211.706 698.314 212.313 697.807 212.82C697.299 213.328 696.693 213.582 695.988 213.582H695.903C695.17 213.582 694.549 213.328 694.042 212.82C693.534 212.313 693.28 211.706 693.28 211.001V172.549C693.28 171.816 693.534 171.195 694.042 170.688C694.549 170.18 695.17 169.926 695.903 169.926H695.988ZM695.945 159.351C694.987 159.351 694.183 159.027 693.534 158.378C692.886 157.729 692.561 156.926 692.561 155.967C692.561 155.036 692.886 154.247 693.534 153.598C694.183 152.949 694.987 152.625 695.945 152.625C696.876 152.625 697.666 152.949 698.314 153.598C698.991 154.275 699.33 155.064 699.33 155.967C699.33 156.898 698.991 157.701 698.314 158.378C697.666 159.027 696.876 159.351 695.945 159.351Z" fill="#FF6100"/>
<path d="M726.132 169.926C732.167 169.926 737.314 172.056 741.572 176.314C745.83 180.572 747.959 185.719 747.959 191.754V211.001C747.959 211.706 747.706 212.313 747.198 212.82C746.69 213.328 746.084 213.582 745.379 213.582H745.252C744.547 213.582 743.941 213.328 743.433 212.82C742.926 212.313 742.672 211.706 742.672 211.001V206.221C737.144 211.128 731.631 213.582 726.132 213.582C720.097 213.582 714.95 211.452 710.692 207.194C706.433 202.936 704.304 197.789 704.304 191.754C704.304 185.719 706.433 180.572 710.692 176.314C714.95 172.056 720.097 169.926 726.132 169.926ZM726.132 175.214C721.563 175.214 717.657 176.836 714.414 180.079C711.199 183.322 709.592 187.214 709.592 191.754C709.592 196.323 711.199 200.228 714.414 203.472C717.657 206.687 721.563 208.294 726.132 208.294C730.7 208.294 734.592 206.687 737.807 203.472C741.05 200.228 742.672 196.323 742.672 191.754C742.672 187.214 741.05 183.322 737.807 180.079C734.62 176.836 730.729 175.214 726.132 175.214Z" fill="#FF6100"/>
<path d="M355.376 195.773C355.376 199.213 356.602 202.16 359.056 204.614C361.509 207.067 364.456 208.294 367.897 208.294C371.337 208.294 374.284 207.067 376.738 204.614C379.191 202.16 380.418 199.213 380.418 195.773V172.549C380.418 171.816 380.672 171.195 381.18 170.688C381.687 170.18 382.308 169.926 383.041 169.926H383.125C383.83 169.926 384.437 170.18 384.944 170.688C385.452 171.195 385.706 171.816 385.706 172.549V195.773C385.706 199.213 386.933 202.16 389.386 204.614C391.84 207.067 394.787 208.294 398.227 208.294C401.696 208.294 404.657 207.067 407.11 204.614C409.564 202.16 410.791 199.213 410.791 195.773V172.549C410.791 171.816 411.045 171.195 411.552 170.688C412.06 170.18 412.666 169.926 413.371 169.926H413.456C414.189 169.926 414.809 170.18 415.317 170.688C415.796 171.195 416.036 171.816 416.036 172.549V195.773C416.036 200.708 414.302 204.91 410.833 208.379C407.364 211.847 403.162 213.582 398.227 213.582C392.361 213.582 387.313 210.818 383.083 205.291C378.825 210.818 373.763 213.582 367.897 213.582C362.962 213.582 358.76 211.847 355.291 208.379C351.822 204.91 350.088 200.708 350.088 195.773V172.549C350.088 171.816 350.342 171.195 350.849 170.688C351.357 170.18 351.963 169.926 352.668 169.926H352.795C353.5 169.926 354.107 170.18 354.614 170.688C355.122 171.195 355.376 171.816 355.376 172.549V195.773Z" fill="#FFB629"/>
<path d="M440.766 175.299C436.197 175.299 432.291 176.92 429.048 180.163C425.833 183.407 424.226 187.312 424.226 191.881C424.226 192.699 424.367 194.067 424.649 195.984L454.471 182.49C450.467 177.696 445.898 175.299 440.766 175.299ZM460.605 182.702C460.915 183.35 460.943 184.013 460.69 184.69C460.436 185.338 459.985 185.818 459.336 186.128C455.388 187.905 450.199 190.245 443.769 193.15C435.788 196.76 430.12 199.312 426.764 200.807C430.712 205.883 435.379 208.421 440.766 208.421C444.347 208.421 447.59 207.363 450.495 205.248C453.287 203.218 455.247 200.567 456.375 197.296C456.798 196.111 457.644 195.519 458.913 195.519C459.815 195.519 460.535 195.886 461.07 196.619C461.578 197.352 461.677 198.142 461.367 198.988C459.872 203.302 457.263 206.799 453.541 209.478C449.705 212.214 445.447 213.582 440.766 213.582C434.731 213.582 429.584 211.452 425.326 207.194C421.067 202.936 418.938 197.789 418.938 191.754C418.938 185.719 421.067 180.572 425.326 176.314C429.584 172.056 434.731 169.926 440.766 169.926C445.109 169.926 449.085 171.111 452.695 173.48C456.22 175.792 458.857 178.866 460.605 182.702Z" fill="#FFB629"/>
<path d="M486.688 175.299C482.12 175.299 478.214 176.92 474.971 180.163C471.756 183.407 470.148 187.312 470.148 191.881C470.148 196.421 471.756 200.313 474.971 203.556C478.214 206.799 482.12 208.421 486.688 208.421C491.285 208.421 495.177 206.799 498.363 203.556C501.607 200.313 503.228 196.421 503.228 191.881C503.228 187.312 501.607 183.407 498.363 180.163C495.177 176.92 491.285 175.299 486.688 175.299ZM467.568 152.583C468.273 152.583 468.879 152.822 469.387 153.302C469.895 153.81 470.148 154.43 470.148 155.163V177.287C475.648 172.38 481.161 169.926 486.688 169.926C492.723 169.926 497.87 172.056 502.128 176.314C506.387 180.572 508.516 185.719 508.516 191.754C508.516 197.789 506.387 202.936 502.128 207.194C497.87 211.452 492.723 213.582 486.688 213.582C480.653 213.582 475.521 211.467 471.29 207.236C467.032 202.978 464.889 197.86 464.861 191.881V155.163C464.861 154.43 465.114 153.81 465.622 153.302C466.13 152.822 466.736 152.583 467.441 152.583H467.568Z" fill="#FFB629"/>
<path d="M433.545 235.978C431.781 235.978 430.284 236.594 429.053 237.824C427.823 239.055 427.207 240.552 427.207 242.316C427.207 244.408 428.161 245.998 430.068 247.085C430.909 247.556 433.381 248.387 437.483 249.576C440.99 250.622 443.554 251.884 445.174 253.361C447.594 255.555 448.804 258.642 448.804 262.621C448.804 266.477 447.43 269.768 444.682 272.496C441.954 275.224 438.672 276.588 434.837 276.588H423.116C422.111 276.588 421.239 276.219 420.501 275.48C419.762 274.742 419.393 273.87 419.393 272.865V272.681C419.393 271.676 419.762 270.804 420.501 270.066C421.239 269.327 422.111 268.958 423.116 268.958H435.145C436.888 268.958 438.385 268.343 439.636 267.112C440.867 265.882 441.482 264.385 441.482 262.621C441.482 260.57 440.528 258.97 438.621 257.821C437.719 257.288 435.237 256.386 431.176 255.114C427.669 253.966 425.115 252.663 423.516 251.207C421.095 249.033 419.885 246.069 419.885 242.316C419.885 238.46 421.249 235.168 423.977 232.44C426.705 229.713 429.997 228.349 433.853 228.349H442.128C443.154 228.349 444.036 228.718 444.774 229.456C445.492 230.174 445.851 231.046 445.851 232.071V232.256C445.851 233.261 445.492 234.133 444.774 234.871C444.036 235.609 443.154 235.978 442.128 235.978H433.545Z" fill="#0099FF"/>
<path d="M478.076 228.533C484.701 228.533 490.372 230.882 495.089 235.578C499.786 240.275 502.134 245.936 502.134 252.561C502.134 259.185 499.786 264.846 495.089 269.543C490.372 274.24 484.701 276.588 478.076 276.588C471.452 276.588 465.791 274.24 461.094 269.543C456.397 264.846 454.049 259.185 454.049 252.561C454.049 245.936 456.397 240.275 461.094 235.578C465.791 230.882 471.452 228.533 478.076 228.533ZM478.076 236.04C473.523 236.04 469.636 237.65 466.416 240.87C463.196 244.09 461.586 247.987 461.586 252.561C461.586 257.134 463.196 261.031 466.416 264.251C469.636 267.451 473.523 269.051 478.076 269.051C482.65 269.051 486.547 267.451 489.767 264.251C492.987 261.031 494.597 257.134 494.597 252.561C494.597 247.987 492.987 244.09 489.767 240.87C486.547 237.65 482.65 236.04 478.076 236.04Z" fill="#0099FF"/>
<path d="M516.486 265.359C516.486 266.384 516.844 267.256 517.562 267.974C518.28 268.692 519.152 269.051 520.177 269.051H529.13C530.155 269.051 531.037 269.42 531.776 270.158C532.514 270.896 532.883 271.778 532.883 272.804V272.865C532.883 273.911 532.514 274.783 531.776 275.48C531.037 276.219 530.155 276.588 529.13 276.588H520.177C517.08 276.588 514.435 275.491 512.24 273.296C510.045 271.102 508.948 268.456 508.948 265.359V232.256C508.948 231.23 509.317 230.348 510.056 229.61C510.794 228.892 511.666 228.533 512.671 228.533H512.763C513.768 228.533 514.64 228.892 515.378 229.61C516.116 230.348 516.486 231.23 516.486 232.256V265.359Z" fill="#0099FF"/>
<path d="M569.047 260.683C569.047 265.072 567.488 268.815 564.37 271.912C561.253 275.029 557.5 276.588 553.11 276.588C548.742 276.588 544.999 275.029 541.881 271.912C538.764 268.815 537.205 265.072 537.205 260.683V232.256C537.205 231.23 537.574 230.348 538.313 229.61C539.051 228.892 539.923 228.533 540.928 228.533H541.02C542.025 228.533 542.897 228.892 543.635 229.61C544.373 230.348 544.742 231.23 544.742 232.256V260.683C544.742 263 545.553 264.979 547.173 266.62C548.814 268.24 550.793 269.051 553.11 269.051C555.449 269.051 557.438 268.24 559.079 266.62C560.699 264.979 561.509 263 561.509 260.683V232.256C561.509 231.23 561.878 230.348 562.617 229.61C563.355 228.892 564.227 228.533 565.232 228.533H565.324C566.329 228.533 567.201 228.892 567.939 229.61C568.677 230.348 569.047 231.23 569.047 232.256V260.683Z" fill="#0099FF"/>
<path d="M604.287 232.317C604.287 233.343 603.918 234.225 603.18 234.963C602.462 235.681 601.59 236.04 600.565 236.04H593.058V272.865C593.058 273.891 592.699 274.763 591.981 275.48C591.243 276.219 590.361 276.588 589.335 276.588H589.274C588.248 276.588 587.366 276.219 586.628 275.48C585.91 274.763 585.551 273.891 585.551 272.865V236.04H578.045C577.04 236.04 576.168 235.681 575.43 234.963C574.691 234.225 574.322 233.343 574.322 232.317V232.256C574.322 231.23 574.691 230.348 575.43 229.61C576.168 228.892 577.04 228.533 578.045 228.533H600.565C601.59 228.533 602.462 228.892 603.18 229.61C603.918 230.348 604.287 231.23 604.287 232.256V232.317Z" fill="#0099FF"/>
<path d="M614.27 228.533C615.275 228.533 616.146 228.892 616.885 229.61C617.623 230.348 617.992 231.23 617.992 232.256V272.865C617.992 273.911 617.623 274.783 616.885 275.48C616.146 276.219 615.275 276.588 614.27 276.588H614.177C613.172 276.588 612.301 276.219 611.562 275.48C610.824 274.783 610.455 273.911 610.455 272.865V232.256C610.455 231.23 610.824 230.348 611.562 229.61C612.301 228.892 613.172 228.533 614.177 228.533H614.27Z" fill="#0099FF"/>
<path d="M649.449 228.533C656.073 228.533 661.744 230.882 666.461 235.578C671.158 240.275 673.507 245.936 673.507 252.561C673.507 259.185 671.158 264.846 666.461 269.543C661.744 274.24 656.073 276.588 649.449 276.588C642.824 276.588 637.163 274.24 632.466 269.543C627.77 264.846 625.421 259.185 625.421 252.561C625.421 245.936 627.77 240.275 632.466 235.578C637.163 230.882 642.824 228.533 649.449 228.533ZM649.449 236.04C644.895 236.04 641.009 237.65 637.789 240.87C634.569 244.09 632.959 247.987 632.959 252.561C632.959 257.134 634.569 261.031 637.789 264.251C641.009 267.451 644.895 269.051 649.449 269.051C654.022 269.051 657.919 267.451 661.139 264.251C664.359 261.031 665.969 257.134 665.969 252.561C665.969 247.987 664.359 244.09 661.139 240.87C657.919 237.65 654.022 236.04 649.449 236.04Z" fill="#0099FF"/>
<path d="M711.854 272.865C711.854 273.911 711.485 274.783 710.747 275.48C710.008 276.219 709.137 276.588 708.132 276.588H708.04C707.035 276.588 706.163 276.219 705.424 275.48C704.686 274.783 704.317 273.911 704.317 272.865V244.439C704.317 242.121 703.507 240.142 701.887 238.501C700.246 236.86 698.256 236.04 695.918 236.04C693.601 236.04 691.621 236.86 689.981 238.501C688.36 240.142 687.55 242.121 687.55 244.439V272.865C687.55 273.911 687.181 274.783 686.443 275.48C685.704 276.219 684.833 276.588 683.828 276.588H683.735C682.73 276.588 681.859 276.219 681.12 275.48C680.382 274.783 680.013 273.911 680.013 272.865V244.439C680.013 240.05 681.572 236.296 684.689 233.179C687.807 230.082 691.55 228.533 695.918 228.533C700.307 228.533 704.061 230.082 707.178 233.179C710.296 236.296 711.854 240.05 711.854 244.439V272.865Z" fill="#0099FF"/>
<path d="M732.205 235.978C730.441 235.978 728.944 236.594 727.713 237.824C726.482 239.055 725.867 240.552 725.867 242.316C725.867 244.408 726.821 245.998 728.728 247.085C729.569 247.556 732.041 248.387 736.143 249.576C739.65 250.622 742.213 251.884 743.834 253.361C746.254 255.555 747.464 258.642 747.464 262.621C747.464 266.477 746.09 269.768 743.341 272.496C740.614 275.224 737.332 276.588 733.497 276.588H721.775C720.77 276.588 719.899 276.219 719.16 275.48C718.422 274.742 718.053 273.87 718.053 272.865V272.681C718.053 271.676 718.422 270.804 719.16 270.066C719.899 269.327 720.77 268.958 721.775 268.958H733.804C735.548 268.958 737.045 268.343 738.296 267.112C739.527 265.882 740.142 264.385 740.142 262.621C740.142 260.57 739.188 258.97 737.281 257.821C736.378 257.288 733.897 256.386 729.836 255.114C726.329 253.966 723.775 252.663 722.175 251.207C719.755 249.033 718.545 246.069 718.545 242.316C718.545 238.46 719.909 235.168 722.637 232.44C725.365 229.713 728.656 228.349 732.512 228.349H740.788C741.814 228.349 742.695 228.718 743.434 229.456C744.152 230.174 744.511 231.046 744.511 232.071V232.256C744.511 233.261 744.152 234.133 743.434 234.871C742.695 235.609 741.814 235.978 740.788 235.978H732.205Z" fill="#0099FF"/>
<rect x="91.9878" y="59.41" width="82.6958" height="31.5032" rx="15.7516" transform="rotate(-45 91.9878 59.41)" fill="#0099FF"/>
<rect x="151.816" y="118.083" width="63.1997" height="31.5032" rx="15.7516" transform="rotate(-45 151.816 118.083)" fill="#FFB629"/>
<rect x="120.311" y="90.5178" width="98.4474" height="31.5032" rx="15.7516" transform="rotate(-45 120.311 90.5178)" fill="#FF6100"/>
<path d="M5.86645 381.018H12.8595C13.3384 381.018 13.7537 381.189 14.1056 381.531C14.4574 381.883 14.6334 382.303 14.6334 382.792V382.821C14.6334 383.31 14.4574 383.73 14.1056 384.082C13.7537 384.424 13.3384 384.595 12.8595 384.595H5.86645V388.905C5.86645 389.394 6.03749 389.809 6.37957 390.151C6.72164 390.493 7.13702 390.664 7.6257 390.664H12.8595C13.3384 390.664 13.7537 390.84 14.1056 391.192C14.4574 391.544 14.6334 391.964 14.6334 392.453V392.482C14.6334 392.981 14.4574 393.396 14.1056 393.728C13.7537 394.08 13.3384 394.256 12.8595 394.256H7.6257C6.14989 394.256 4.8891 393.733 3.84332 392.688C2.79755 391.642 2.27466 390.381 2.27466 388.905V376.708C2.27466 375.232 2.79755 373.971 3.84332 372.925C4.8891 371.88 6.14989 371.357 7.6257 371.357H12.8595C13.3384 371.357 13.7537 371.533 14.1056 371.884C14.4574 372.217 14.6334 372.632 14.6334 373.131V373.16C14.6334 373.649 14.4574 374.069 14.1056 374.421C13.7537 374.773 13.3384 374.948 12.8595 374.948H7.6257C7.13702 374.948 6.72164 375.12 6.37957 375.462C6.03749 375.804 5.86645 376.219 5.86645 376.708V381.018Z" fill="black"/>
<path d="M39.8856 392.482C39.8856 392.981 39.7097 393.396 39.3578 393.728C39.006 394.08 38.5906 394.256 38.1117 394.256H38.0677C37.5888 394.256 37.1734 394.08 36.8216 393.728C36.4697 393.396 36.2938 392.981 36.2938 392.482V388.04C36.2938 386.936 35.9078 385.993 35.1356 385.211C34.3538 384.429 33.4057 384.038 32.2915 384.038C31.1871 384.038 30.244 384.429 29.4621 385.211C28.69 385.993 28.3039 386.936 28.3039 388.04V392.482C28.3039 392.981 28.128 393.396 27.7761 393.728C27.4243 394.08 27.0089 394.256 26.53 394.256H26.486C26.0071 394.256 25.5917 394.08 25.2399 393.728C24.888 393.396 24.7121 392.981 24.7121 392.482V388.04C24.7121 385.46 25.5966 383.53 27.3656 382.249C25.5966 380.969 24.7121 379.039 24.7121 376.459V373.131C24.7121 372.642 24.888 372.222 25.2399 371.87C25.5917 371.528 26.0071 371.357 26.486 371.357H26.53C27.0089 371.357 27.4243 371.528 27.7761 371.87C28.128 372.222 28.3039 372.642 28.3039 373.131V376.459C28.3039 377.563 28.69 378.506 29.4621 379.288C30.244 380.07 31.1871 380.461 32.2915 380.461C33.4057 380.461 34.3538 380.07 35.1356 379.288C35.9078 378.506 36.2938 377.563 36.2938 376.459V373.131C36.2938 372.642 36.4697 372.222 36.8216 371.87C37.1734 371.528 37.5888 371.357 38.0677 371.357H38.1117C38.5906 371.357 39.006 371.528 39.3578 371.87C39.7097 372.222 39.8856 372.642 39.8856 373.131V376.459C39.8856 379.039 39.0011 380.969 37.2321 382.249C39.0011 383.53 39.8856 385.46 39.8856 388.04V392.482Z" fill="black"/>
<path d="M54.3771 383.334H58.57C59.733 383.334 60.7251 382.924 61.546 382.103C62.3573 381.292 62.7629 380.304 62.7629 379.141C62.7629 377.978 62.3573 376.986 61.546 376.165C60.7251 375.344 59.733 374.934 58.57 374.934C57.4069 374.934 56.4149 375.344 55.5939 376.165C54.7827 376.986 54.3771 377.978 54.3771 379.141V383.334ZM54.3771 386.926V392.482C54.3771 392.981 54.2012 393.396 53.8493 393.728C53.4975 394.08 53.0821 394.256 52.6032 394.256H52.5592C52.0803 394.256 51.6649 394.08 51.3131 393.728C50.9612 393.396 50.7853 392.981 50.7853 392.482V379.141C50.7853 376.991 51.5477 375.154 53.0723 373.629C54.597 372.114 56.4296 371.357 58.57 371.357C60.7202 371.357 62.5527 372.114 64.0676 373.629C65.5923 375.154 66.3547 376.991 66.3547 379.141C66.3547 381.282 65.5923 383.114 64.0676 384.639C62.5527 386.164 60.7202 386.926 58.57 386.926H54.3771Z" fill="black"/>
<path d="M80.3917 381.018H87.3847C87.8636 381.018 88.279 381.189 88.6308 381.531C88.9827 381.883 89.1586 382.303 89.1586 382.792V382.821C89.1586 383.31 88.9827 383.73 88.6308 384.082C88.279 384.424 87.8636 384.595 87.3847 384.595H80.3917V388.905C80.3917 389.394 80.5627 389.809 80.9048 390.151C81.2469 390.493 81.6623 390.664 82.1509 390.664H87.3847C87.8636 390.664 88.279 390.84 88.6308 391.192C88.9827 391.544 89.1586 391.964 89.1586 392.453V392.482C89.1586 392.981 88.9827 393.396 88.6308 393.728C88.279 394.08 87.8636 394.256 87.3847 394.256H82.1509C80.6751 394.256 79.4143 393.733 78.3686 392.688C77.3228 391.642 76.7999 390.381 76.7999 388.905V376.708C76.7999 375.232 77.3228 373.971 78.3686 372.925C79.4143 371.88 80.6751 371.357 82.1509 371.357H87.3847C87.8636 371.357 88.279 371.533 88.6308 371.884C88.9827 372.217 89.1586 372.632 89.1586 373.131V373.16C89.1586 373.649 88.9827 374.069 88.6308 374.421C88.279 374.773 87.8636 374.948 87.3847 374.948H82.1509C81.6623 374.948 81.2469 375.12 80.9048 375.462C80.5627 375.804 80.3917 376.219 80.3917 376.708V381.018Z" fill="black"/>
<path d="M110.321 371.357C111.288 371.357 112.236 371.474 113.165 371.709C114.064 371.943 114.513 372.515 114.513 373.424V373.468C114.513 374.044 114.279 374.514 113.81 374.875C113.497 375.12 113.155 375.242 112.784 375.242C112.627 375.242 112.466 375.222 112.3 375.183C111.645 375.017 110.985 374.934 110.321 374.934C108.151 374.934 106.299 375.701 104.764 377.236C103.23 378.77 102.463 380.627 102.463 382.806C102.463 384.986 103.23 386.843 104.764 388.377C106.299 389.902 108.151 390.664 110.321 390.664C110.985 390.664 111.645 390.586 112.3 390.43C112.466 390.391 112.627 390.371 112.784 390.371C113.155 390.371 113.497 390.493 113.81 390.738C114.279 391.09 114.513 391.559 114.513 392.145V392.174C114.513 393.093 114.064 393.67 113.165 393.904C112.236 394.139 111.288 394.256 110.321 394.256C107.164 394.256 104.466 393.137 102.228 390.899C99.9899 388.661 98.8708 385.963 98.8708 382.806C98.8708 379.65 99.9899 376.952 102.228 374.714C104.466 372.476 107.164 371.357 110.321 371.357Z" fill="black"/>
<path d="M138.065 373.16C138.065 373.649 137.889 374.069 137.537 374.421C137.195 374.763 136.78 374.934 136.291 374.934H132.714V392.482C132.714 392.971 132.543 393.386 132.201 393.728C131.849 394.08 131.429 394.256 130.94 394.256H130.911C130.422 394.256 130.002 394.08 129.65 393.728C129.308 393.386 129.137 392.971 129.137 392.482V374.934H125.56C125.081 374.934 124.665 374.763 124.314 374.421C123.962 374.069 123.786 373.649 123.786 373.16V373.131C123.786 372.642 123.962 372.222 124.314 371.87C124.665 371.528 125.081 371.357 125.56 371.357H136.291C136.78 371.357 137.195 371.528 137.537 371.87C137.889 372.222 138.065 372.642 138.065 373.131V373.16Z" fill="black"/>
<path d="M180.023 392.482C180.023 392.981 179.847 393.396 179.495 393.728C179.143 394.08 178.728 394.256 178.249 394.256H178.205C177.726 394.256 177.31 394.08 176.959 393.728C176.607 393.396 176.431 392.981 176.431 392.482V378.936C176.431 377.832 176.045 376.889 175.273 376.107C174.491 375.325 173.543 374.934 172.428 374.934C171.324 374.934 170.381 375.325 169.599 376.107C168.827 376.889 168.441 377.832 168.441 378.936V392.482C168.441 392.981 168.265 393.396 167.913 393.728C167.561 394.08 167.146 394.256 166.667 394.256H166.623C166.144 394.256 165.729 394.08 165.377 393.728C165.025 393.396 164.849 392.981 164.849 392.482V378.936C164.849 376.845 165.592 375.056 167.077 373.57C168.563 372.095 170.347 371.357 172.428 371.357C174.52 371.357 176.309 372.095 177.794 373.57C179.28 375.056 180.023 376.845 180.023 378.936V392.482Z" fill="black"/>
<path d="M202.079 371.357C205.236 371.357 207.938 372.476 210.186 374.714C212.424 376.952 213.543 379.65 213.543 382.806C213.543 385.963 212.424 388.661 210.186 390.899C207.938 393.137 205.236 394.256 202.079 394.256C198.922 394.256 196.224 393.137 193.986 390.899C191.748 388.661 190.629 385.963 190.629 382.806C190.629 379.65 191.748 376.952 193.986 374.714C196.224 372.476 198.922 371.357 202.079 371.357ZM202.079 374.934C199.909 374.934 198.057 375.701 196.523 377.236C194.988 378.77 194.221 380.627 194.221 382.806C194.221 384.986 194.988 386.843 196.523 388.377C198.057 389.902 199.909 390.664 202.079 390.664C204.258 390.664 206.115 389.902 207.65 388.377C209.184 386.843 209.951 384.986 209.951 382.806C209.951 380.627 209.184 378.77 207.65 377.236C206.115 375.701 204.258 374.934 202.079 374.934Z" fill="black"/>
<path d="M237.403 373.16C237.403 373.649 237.227 374.069 236.875 374.421C236.533 374.763 236.118 374.934 235.629 374.934H232.052V392.482C232.052 392.971 231.881 393.386 231.539 393.728C231.187 394.08 230.766 394.256 230.278 394.256H230.248C229.76 394.256 229.34 394.08 228.988 393.728C228.646 393.386 228.475 392.971 228.475 392.482V374.934H224.897C224.419 374.934 224.003 374.763 223.651 374.421C223.299 374.069 223.124 373.649 223.124 373.16V373.131C223.124 372.642 223.299 372.222 223.651 371.87C224.003 371.528 224.419 371.357 224.897 371.357H235.629C236.118 371.357 236.533 371.528 236.875 371.87C237.227 372.222 237.403 372.642 237.403 373.131V373.16Z" fill="black"/>
<path d="M249.226 371.357C249.705 371.357 250.12 371.528 250.472 371.87C250.824 372.222 251 372.642 251 373.131V381.018H259.122V373.131C259.122 372.642 259.298 372.222 259.65 371.87C260.001 371.528 260.417 371.357 260.896 371.357H260.94C261.419 371.357 261.834 371.528 262.186 371.87C262.538 372.222 262.714 372.642 262.714 373.131V392.482C262.714 392.981 262.538 393.396 262.186 393.728C261.834 394.08 261.419 394.256 260.94 394.256H260.896C260.417 394.256 260.001 394.08 259.65 393.728C259.298 393.396 259.122 392.981 259.122 392.482V384.595H251V392.482C251 392.981 250.824 393.396 250.472 393.728C250.12 394.08 249.705 394.256 249.226 394.256H249.182C248.703 394.256 248.288 394.08 247.936 393.728C247.584 393.396 247.408 392.981 247.408 392.482V373.131C247.408 372.642 247.584 372.222 247.936 371.87C248.288 371.528 248.703 371.357 249.182 371.357H249.226Z" fill="black"/>
<path d="M276.003 371.357C276.482 371.357 276.897 371.528 277.249 371.87C277.601 372.222 277.777 372.642 277.777 373.131V392.482C277.777 392.981 277.601 393.396 277.249 393.728C276.897 394.08 276.482 394.256 276.003 394.256H275.959C275.48 394.256 275.065 394.08 274.713 393.728C274.361 393.396 274.185 392.981 274.185 392.482V373.131C274.185 372.642 274.361 372.222 274.713 371.87C275.065 371.528 275.48 371.357 275.959 371.357H276.003Z" fill="black"/>
<path d="M304.437 392.482C304.437 392.981 304.261 393.396 303.909 393.728C303.557 394.08 303.142 394.256 302.663 394.256H302.619C302.14 394.256 301.724 394.08 301.372 393.728C301.021 393.396 300.845 392.981 300.845 392.482V378.936C300.845 377.832 300.459 376.889 299.687 376.107C298.905 375.325 297.957 374.934 296.842 374.934C295.738 374.934 294.795 375.325 294.013 376.107C293.241 376.889 292.855 377.832 292.855 378.936V392.482C292.855 392.981 292.679 393.396 292.327 393.728C291.975 394.08 291.56 394.256 291.081 394.256H291.037C290.558 394.256 290.143 394.08 289.791 393.728C289.439 393.396 289.263 392.981 289.263 392.482V378.936C289.263 376.845 290.006 375.056 291.491 373.57C292.977 372.095 294.761 371.357 296.842 371.357C298.934 371.357 300.723 372.095 302.208 373.57C303.694 375.056 304.437 376.845 304.437 378.936V392.482Z" fill="black"/>
<path d="M326.493 371.357C329.845 371.357 332.655 372.588 334.923 375.051C335.245 375.403 335.406 375.804 335.406 376.253C335.406 376.322 335.401 376.385 335.392 376.444C335.323 376.981 335.084 377.392 334.673 377.675L334.644 377.705C334.321 377.939 333.979 378.056 333.618 378.056C333.549 378.056 333.481 378.052 333.413 378.042C332.973 378.003 332.596 377.812 332.284 377.47C330.73 375.779 328.799 374.934 326.493 374.934C324.323 374.934 322.471 375.701 320.936 377.236C319.402 378.77 318.635 380.627 318.635 382.806C318.635 384.986 319.402 386.843 320.936 388.377C322.471 389.902 324.323 390.664 326.493 390.664C328.438 390.664 330.143 390.034 331.609 388.773C333.066 387.522 333.921 386.129 334.175 384.595H326.859C326.371 384.595 325.95 384.419 325.599 384.067C325.256 383.725 325.085 383.31 325.085 382.821V382.792C325.085 382.303 325.256 381.883 325.599 381.531C325.95 381.189 326.371 381.018 326.859 381.018H336.169C336.657 381.018 337.078 381.189 337.429 381.531C337.772 381.883 337.947 382.303 337.957 382.792V382.806C337.957 385.963 336.838 388.661 334.6 390.899C332.352 393.137 329.65 394.256 326.493 394.256C323.336 394.256 320.638 393.137 318.4 390.899C316.162 388.661 315.043 385.963 315.043 382.806C315.043 379.65 316.162 376.952 318.4 374.714C320.638 372.476 323.336 371.357 326.493 371.357Z" fill="black"/>
<path d="M369.081 388.905C369.081 389.394 369.252 389.809 369.594 390.151C369.936 390.493 370.351 390.664 370.84 390.664H375.106C375.595 390.664 376.015 390.84 376.367 391.192C376.719 391.544 376.895 391.964 376.895 392.453V392.482C376.895 392.981 376.719 393.396 376.367 393.728C376.015 394.08 375.595 394.256 375.106 394.256H370.84C369.364 394.256 368.103 393.733 367.058 392.688C366.012 391.642 365.489 390.381 365.489 388.905V373.131C365.489 372.642 365.665 372.222 366.017 371.87C366.368 371.528 366.784 371.357 367.263 371.357H367.307C367.786 371.357 368.201 371.528 368.553 371.87C368.905 372.222 369.081 372.642 369.081 373.131V388.905Z" fill="black"/>
<path d="M390.052 381.018H397.045C397.524 381.018 397.939 381.189 398.291 381.531C398.643 381.883 398.819 382.303 398.819 382.792V382.821C398.819 383.31 398.643 383.73 398.291 384.082C397.939 384.424 397.524 384.595 397.045 384.595H390.052V388.905C390.052 389.394 390.223 389.809 390.565 390.151C390.907 390.493 391.323 390.664 391.811 390.664H397.045C397.524 390.664 397.939 390.84 398.291 391.192C398.643 391.544 398.819 391.964 398.819 392.453V392.482C398.819 392.981 398.643 393.396 398.291 393.728C397.939 394.08 397.524 394.256 397.045 394.256H391.811C390.336 394.256 389.075 393.733 388.029 392.688C386.983 391.642 386.46 390.381 386.46 388.905V376.708C386.46 375.232 386.983 373.971 388.029 372.925C389.075 371.88 390.336 371.357 391.811 371.357H397.045C397.524 371.357 397.939 371.533 398.291 371.884C398.643 372.217 398.819 372.632 398.819 373.131V373.16C398.819 373.649 398.643 374.069 398.291 374.421C397.939 374.773 397.524 374.948 397.045 374.948H391.811C391.323 374.948 390.907 375.12 390.565 375.462C390.223 375.804 390.052 376.219 390.052 376.708V381.018Z" fill="black"/>
<path d="M415.202 374.905C414.361 374.905 413.648 375.198 413.061 375.784C412.475 376.371 412.182 377.084 412.182 377.925C412.182 378.921 412.636 379.679 413.545 380.197C413.946 380.422 415.123 380.818 417.078 381.384C418.749 381.883 419.971 382.484 420.743 383.188C421.897 384.233 422.473 385.704 422.473 387.6C422.473 389.438 421.818 391.007 420.509 392.306C419.209 393.606 417.645 394.256 415.817 394.256H410.232C409.753 394.256 409.337 394.08 408.986 393.728C408.634 393.377 408.458 392.961 408.458 392.482V392.394C408.458 391.915 408.634 391.5 408.986 391.148C409.337 390.796 409.753 390.62 410.232 390.62H415.964C416.795 390.62 417.508 390.327 418.104 389.741C418.691 389.154 418.984 388.441 418.984 387.6C418.984 386.623 418.53 385.861 417.621 385.313C417.191 385.059 416.008 384.629 414.073 384.023C412.402 383.476 411.185 382.855 410.422 382.161C409.269 381.125 408.692 379.713 408.692 377.925C408.692 376.087 409.342 374.518 410.642 373.219C411.942 371.919 413.511 371.269 415.348 371.269H419.292C419.781 371.269 420.201 371.445 420.553 371.797C420.895 372.139 421.066 372.554 421.066 373.043V373.131C421.066 373.61 420.895 374.025 420.553 374.377C420.201 374.729 419.781 374.905 419.292 374.905H415.202Z" fill="black"/>
<path d="M439.076 374.905C438.235 374.905 437.522 375.198 436.935 375.784C436.349 376.371 436.056 377.084 436.056 377.925C436.056 378.921 436.51 379.679 437.419 380.197C437.82 380.422 438.998 380.818 440.952 381.384C442.624 381.883 443.845 382.484 444.617 383.188C445.771 384.233 446.347 385.704 446.347 387.6C446.347 389.438 445.693 391.007 444.383 392.306C443.083 393.606 441.519 394.256 439.692 394.256H434.106C433.627 394.256 433.212 394.08 432.86 393.728C432.508 393.377 432.332 392.961 432.332 392.482V392.394C432.332 391.915 432.508 391.5 432.86 391.148C433.212 390.796 433.627 390.62 434.106 390.62H439.838C440.669 390.62 441.382 390.327 441.979 389.741C442.565 389.154 442.858 388.441 442.858 387.6C442.858 386.623 442.404 385.861 441.495 385.313C441.065 385.059 439.882 384.629 437.947 384.023C436.276 383.476 435.059 382.855 434.297 382.161C433.143 381.125 432.567 379.713 432.567 377.925C432.567 376.087 433.217 374.518 434.516 373.219C435.816 371.919 437.385 371.269 439.222 371.269H443.166C443.655 371.269 444.075 371.445 444.427 371.797C444.769 372.139 444.94 372.554 444.94 373.043V373.131C444.94 373.61 444.769 374.025 444.427 374.377C444.075 374.729 443.655 374.905 443.166 374.905H439.076Z" fill="black"/>
<path d="M486.824 373.16C486.824 373.649 486.648 374.069 486.296 374.421C485.954 374.763 485.539 374.934 485.05 374.934H481.473V392.482C481.473 392.971 481.302 393.386 480.96 393.728C480.608 394.08 480.188 394.256 479.699 394.256H479.67C479.181 394.256 478.761 394.08 478.409 393.728C478.067 393.386 477.896 392.971 477.896 392.482V374.934H474.319C473.84 374.934 473.425 374.763 473.073 374.421C472.721 374.069 472.545 373.649 472.545 373.16V373.131C472.545 372.642 472.721 372.222 473.073 371.87C473.425 371.528 473.84 371.357 474.319 371.357H485.05C485.539 371.357 485.954 371.528 486.296 371.87C486.648 372.222 486.824 372.642 486.824 373.131V373.16Z" fill="black"/>
<path d="M498.647 371.357C499.126 371.357 499.542 371.528 499.894 371.87C500.245 372.222 500.421 372.642 500.421 373.131V381.018H508.543V373.131C508.543 372.642 508.719 372.222 509.071 371.87C509.423 371.528 509.838 371.357 510.317 371.357H510.361C510.84 371.357 511.255 371.528 511.607 371.87C511.959 372.222 512.135 372.642 512.135 373.131V392.482C512.135 392.981 511.959 393.396 511.607 393.728C511.255 394.08 510.84 394.256 510.361 394.256H510.317C509.838 394.256 509.423 394.08 509.071 393.728C508.719 393.396 508.543 392.981 508.543 392.482V384.595H500.421V392.482C500.421 392.981 500.245 393.396 499.894 393.728C499.542 394.08 499.126 394.256 498.647 394.256H498.603C498.125 394.256 497.709 394.08 497.357 393.728C497.005 393.396 496.83 392.981 496.83 392.482V373.131C496.83 372.642 497.005 372.222 497.357 371.87C497.709 371.528 498.125 371.357 498.603 371.357H498.647Z" fill="black"/>
<path d="M538.34 392.482C538.34 392.981 538.164 393.396 537.812 393.728C537.461 394.08 537.045 394.256 536.566 394.256H536.522C536.043 394.256 535.628 394.08 535.276 393.728C534.924 393.396 534.748 392.981 534.748 392.482V385.944H526.758V392.482C526.758 392.981 526.583 393.396 526.231 393.728C525.879 394.08 525.464 394.256 524.985 394.256H524.941C524.462 394.256 524.046 394.08 523.694 393.728C523.343 393.396 523.167 392.981 523.167 392.482V378.936C523.167 376.845 523.909 375.056 525.395 373.57C526.881 372.095 528.664 371.357 530.746 371.357C532.838 371.357 534.626 372.095 536.112 373.57C537.597 375.056 538.34 376.845 538.34 378.936V392.482ZM534.748 382.367V378.936C534.748 377.832 534.362 376.889 533.59 376.107C532.808 375.325 531.86 374.934 530.746 374.934C529.642 374.934 528.699 375.325 527.917 376.107C527.145 376.889 526.758 377.832 526.758 378.936V382.367H534.748Z" fill="black"/>
<path d="M564.56 392.482C564.56 392.981 564.384 393.396 564.032 393.728C563.68 394.08 563.265 394.256 562.786 394.256H562.742C562.263 394.256 561.848 394.08 561.496 393.728C561.144 393.396 560.968 392.981 560.968 392.482V378.936C560.968 377.832 560.582 376.889 559.81 376.107C559.028 375.325 558.08 374.934 556.966 374.934C555.862 374.934 554.918 375.325 554.136 376.107C553.364 376.889 552.978 377.832 552.978 378.936V392.482C552.978 392.981 552.802 393.396 552.451 393.728C552.099 394.08 551.683 394.256 551.204 394.256H551.16C550.682 394.256 550.266 394.08 549.914 393.728C549.562 393.396 549.387 392.981 549.387 392.482V378.936C549.387 376.845 550.129 375.056 551.615 373.57C553.1 372.095 554.884 371.357 556.966 371.357C559.057 371.357 560.846 372.095 562.332 373.57C563.817 375.056 564.56 376.845 564.56 378.936V392.482Z" fill="black"/>
<path d="M595.977 383.334H600.17C601.333 383.334 602.325 382.924 603.146 382.103C603.957 381.292 604.362 380.304 604.362 379.141C604.362 377.978 603.957 376.986 603.146 376.165C602.325 375.344 601.333 374.934 600.17 374.934C599.006 374.934 598.014 375.344 597.193 376.165C596.382 376.986 595.977 377.978 595.977 379.141V383.334ZM595.977 386.926V392.482C595.977 392.981 595.801 393.396 595.449 393.728C595.097 394.08 594.682 394.256 594.203 394.256H594.159C593.68 394.256 593.264 394.08 592.913 393.728C592.561 393.396 592.385 392.981 592.385 392.482V379.141C592.385 376.991 593.147 375.154 594.672 373.629C596.197 372.114 598.029 371.357 600.17 371.357C602.32 371.357 604.152 372.114 605.667 373.629C607.192 375.154 607.954 376.991 607.954 379.141C607.954 381.282 607.192 383.114 605.667 384.639C604.152 386.164 602.32 386.926 600.17 386.926H595.977Z" fill="black"/>
<path d="M626.023 382.44C627.059 382.44 627.943 382.078 628.676 381.355C629.409 380.622 629.776 379.738 629.776 378.702C629.776 377.656 629.409 376.766 628.676 376.033C627.943 375.31 627.059 374.948 626.023 374.948H624.337C623.604 374.948 623.032 375.149 622.622 375.55C622.299 375.872 622.094 376.253 622.006 376.693C621.986 376.801 621.977 376.972 621.977 377.206V382.44H626.023ZM629.776 389.77C629.776 388.734 629.409 387.85 628.676 387.117C628.012 386.442 627.22 386.081 626.301 386.032H621.977V392.482C621.977 392.971 621.805 393.386 621.463 393.728C621.112 394.08 620.691 394.256 620.203 394.256H620.173C619.675 394.256 619.259 394.08 618.927 393.728C618.575 393.396 618.399 392.981 618.399 392.482V377.074C618.399 375.501 618.956 374.157 620.071 373.043C621.195 371.919 622.543 371.357 624.117 371.357H626.023C628.046 371.357 629.771 372.075 631.198 373.512C632.635 374.948 633.353 376.678 633.353 378.702C633.353 380.715 632.635 382.44 631.198 383.877L630.861 384.229L631.213 384.595C632.64 386.022 633.353 387.747 633.353 389.77V392.482C633.353 392.981 633.177 393.396 632.825 393.728C632.473 394.08 632.058 394.256 631.579 394.256H631.55C631.071 394.256 630.656 394.08 630.304 393.728C629.952 393.396 629.776 392.981 629.776 392.482V389.77Z" fill="black"/>
<path d="M647.243 381.018H654.236C654.715 381.018 655.131 381.189 655.483 381.531C655.834 381.883 656.01 382.303 656.01 382.792V382.821C656.01 383.31 655.834 383.73 655.483 384.082C655.131 384.424 654.715 384.595 654.236 384.595H647.243V388.905C647.243 389.394 647.414 389.809 647.757 390.151C648.099 390.493 648.514 390.664 649.003 390.664H654.236C654.715 390.664 655.131 390.84 655.483 391.192C655.834 391.544 656.01 391.964 656.01 392.453V392.482C656.01 392.981 655.834 393.396 655.483 393.728C655.131 394.08 654.715 394.256 654.236 394.256H649.003C647.527 394.256 646.266 393.733 645.22 392.688C644.175 391.642 643.652 390.381 643.652 388.905V376.708C643.652 375.232 644.175 373.971 645.22 372.925C646.266 371.88 647.527 371.357 649.003 371.357H654.236C654.715 371.357 655.131 371.533 655.483 371.884C655.834 372.217 656.01 372.632 656.01 373.131V373.16C656.01 373.649 655.834 374.069 655.483 374.421C655.131 374.773 654.715 374.948 654.236 374.948H649.003C648.514 374.948 648.099 375.12 647.757 375.462C647.414 375.804 647.243 376.219 647.243 376.708V381.018Z" fill="black"/>
<path d="M669.828 381.018H675.941C676.42 381.018 676.835 381.189 677.187 381.531C677.539 381.883 677.715 382.303 677.715 382.792V382.821C677.715 383.32 677.539 383.735 677.187 384.067C676.835 384.419 676.42 384.595 675.941 384.595H669.828V392.482C669.828 392.981 669.652 393.396 669.3 393.728C668.948 394.08 668.533 394.256 668.054 394.256H668.01C667.531 394.256 667.115 394.08 666.763 393.728C666.412 393.396 666.236 392.981 666.236 392.482V376.708C666.236 375.232 666.759 373.971 667.804 372.925C668.85 371.88 670.111 371.357 671.587 371.357H676.088C676.566 371.357 676.982 371.528 677.334 371.87C677.685 372.222 677.861 372.642 677.861 373.131V373.16C677.861 373.649 677.685 374.069 677.334 374.421C676.982 374.763 676.566 374.934 676.088 374.934H671.587C671.098 374.934 670.683 375.105 670.341 375.447C669.999 375.789 669.828 376.209 669.828 376.708V381.018Z" fill="black"/>
<path d="M691.327 381.018H698.32C698.799 381.018 699.214 381.189 699.566 381.531C699.918 381.883 700.094 382.303 700.094 382.792V382.821C700.094 383.31 699.918 383.73 699.566 384.082C699.214 384.424 698.799 384.595 698.32 384.595H691.327V388.905C691.327 389.394 691.498 389.809 691.84 390.151C692.182 390.493 692.597 390.664 693.086 390.664H698.32C698.799 390.664 699.214 390.84 699.566 391.192C699.918 391.544 700.094 391.964 700.094 392.453V392.482C700.094 392.981 699.918 393.396 699.566 393.728C699.214 394.08 698.799 394.256 698.32 394.256H693.086C691.61 394.256 690.349 393.733 689.304 392.688C688.258 391.642 687.735 390.381 687.735 388.905V376.708C687.735 375.232 688.258 373.971 689.304 372.925C690.349 371.88 691.61 371.357 693.086 371.357H698.32C698.799 371.357 699.214 371.533 699.566 371.884C699.918 372.217 700.094 372.632 700.094 373.131V373.16C700.094 373.649 699.918 374.069 699.566 374.421C699.214 374.773 698.799 374.948 698.32 374.948H693.086C692.597 374.948 692.182 375.12 691.84 375.462C691.498 375.804 691.327 376.219 691.327 376.708V381.018Z" fill="black"/>
<path d="M721.256 371.357C722.223 371.357 723.171 371.474 724.1 371.709C724.999 371.943 725.448 372.515 725.448 373.424V373.468C725.448 374.044 725.214 374.514 724.745 374.875C724.432 375.12 724.09 375.242 723.719 375.242C723.562 375.242 723.401 375.222 723.235 375.183C722.58 375.017 721.92 374.934 721.256 374.934C719.086 374.934 717.234 375.701 715.699 377.236C714.165 378.77 713.398 380.627 713.398 382.806C713.398 384.986 714.165 386.843 715.699 388.377C717.234 389.902 719.086 390.664 721.256 390.664C721.92 390.664 722.58 390.586 723.235 390.43C723.401 390.391 723.562 390.371 723.719 390.371C724.09 390.371 724.432 390.493 724.745 390.738C725.214 391.09 725.448 391.559 725.448 392.145V392.174C725.448 393.093 724.999 393.67 724.1 393.904C723.171 394.139 722.223 394.256 721.256 394.256C718.099 394.256 715.401 393.137 713.163 390.899C710.925 388.661 709.806 385.963 709.806 382.806C709.806 379.65 710.925 376.952 713.163 374.714C715.401 372.476 718.099 371.357 721.256 371.357Z" fill="black"/>
<path d="M749 373.16C749 373.649 748.824 374.069 748.472 374.421C748.13 374.763 747.715 374.934 747.226 374.934H743.649V392.482C743.649 392.971 743.478 393.386 743.136 393.728C742.784 394.08 742.364 394.256 741.875 394.256H741.846C741.357 394.256 740.937 394.08 740.585 393.728C740.243 393.386 740.072 392.971 740.072 392.482V374.934H736.495C736.016 374.934 735.6 374.763 735.249 374.421C734.897 374.069 734.721 373.649 734.721 373.16V373.131C734.721 372.642 734.897 372.222 735.249 371.87C735.6 371.528 736.016 371.357 736.495 371.357H747.226C747.715 371.357 748.13 371.528 748.472 371.87C748.824 372.222 749 372.642 749 373.131V373.16Z" fill="black"/>
<line x1="448.029" y1="327.702" x2="748.274" y2="327.702" stroke="black"/>
<line x1="0.663086" y1="327.702" x2="300.908" y2="327.702" stroke="black"/>
<rect x="354.951" y="328.202" width="27.022" height="27.022" rx="1" transform="rotate(-45 354.951 328.202)" fill="#0099FF"/>
<rect x="399.987" y="328.202" width="18.0147" height="18.0147" rx="1" transform="rotate(-45 399.987 328.202)" fill="#FF6100"/>
<rect x="324.929" y="328.202" width="18.0147" height="18.0147" rx="1" transform="rotate(-45 324.929 328.202)" fill="#FFB629"/>
</svg>
