<svg width="226" height="71" viewBox="0 0 226 71" fill="none" xmlns="http://www.w3.org/2000/svg">
<path d="M77.3286 30.5176C70.5286 24.2723 63.44 27.9378 56.7603 32.7258C52.9335 35.4933 49.3071 37.5505 46.8227 35.2688C44.703 33.322 44.9474 30.0319 48.9424 26.3664C52.0359 23.5252 56.2754 22.4764 58.88 23.0763L60.9557 17.129C54.4001 15.0718 48.5337 18.1374 44.0939 22.2151C38.8807 27.0766 35.4987 34.5953 41.3651 39.9832C47.7603 45.8568 54.6846 42.3385 61.2001 37.6278C65.3955 34.5217 69.3064 32.954 71.9911 35.4197C75.0846 38.2608 73.0891 42.2649 69.7111 45.371C66.249 48.5507 61.5647 50.3098 57.169 48.5875L55.0092 54.8328C62.3381 57.674 68.6132 55.2082 74.4355 49.8572C80.7907 44.0203 83.6798 36.3545 77.3286 30.5176Z" fill="url(#paint0_linear_2_35)"/>
<path d="M8.4309 23.7277H26.7272V56.9195H34.9538V23.7277H39.7502C40.5717 22.6383 41.5053 21.6079 42.5071 20.6768C44.0899 19.2231 45.849 17.8908 47.7524 16.8604C38.7324 16.8604 21.8626 16.8604 8.13838 16.8604C14.718 7.89538 25.8737 1.98496 38.504 1.98496C55.0012 1.98496 68.9779 12.0614 73.5299 25.8659C74.2913 26.0462 75.0325 26.3038 75.7618 26.6424C74.0588 20.6216 70.6408 15.1012 65.7241 10.5856C58.4513 3.90603 48.7862 0.229492 38.5 0.229492C28.2179 0.229492 18.5488 3.90603 11.2759 10.5856C9.18423 12.5067 7.36502 14.6118 5.83031 16.8567C4.35169 19.0243 3.13755 21.3245 2.21191 23.724H4.26755H8.4309V23.7277Z" fill="white"/>
<path d="M38.5 69.1967C18.3244 69.1967 1.90737 54.1225 1.90737 35.589C1.90737 33.8593 2.05162 32.1627 2.32411 30.5029H0.392695C0.132235 32.1737 0 33.8703 0 35.589C0 45.0324 4.00307 53.9128 11.2759 60.5924C18.5488 67.2719 28.2138 70.9485 38.5 70.9485C48.7822 70.9485 58.4512 67.2719 65.7241 60.5924C67.7517 58.7302 69.5228 56.6987 71.0255 54.531C69.8273 55.2082 68.6252 55.7492 67.4191 56.154C60.7192 64.0849 50.2487 69.1967 38.5 69.1967Z" fill="url(#paint1_linear_2_35)"/>
<path d="M104.1 33.9954H106.115V14.8473H113.949V13.0109H87.9994V14.8473H104.1V33.9954Z" fill="url(#paint2_linear_2_35)"/>
<path d="M116.614 25.7924C116.967 24.6036 117.712 23.6799 118.894 22.9659C119.984 22.3035 121.23 21.9612 122.601 21.9502H122.665C123.999 21.9502 125.077 22.263 125.963 22.9071C126.904 23.5842 127.365 24.5079 127.365 25.7261V33.9992H129.385V25.7261C129.385 24.1031 128.779 22.7635 127.589 21.7515C126.536 20.8425 125.161 20.3088 123.514 20.1653C121.899 19.9997 120.369 20.2426 118.91 20.8535C118.024 21.2252 117.255 21.7 116.614 22.2777V12.7423H114.61V34.0029H116.614V25.7924Z" fill="url(#paint3_linear_2_35)"/>
<path d="M99.7362 31.2942C98.3978 30.4735 96.9472 30.054 95.4245 30.054C93.3529 30.054 91.6298 30.5582 90.3035 31.5555C88.881 32.6228 88.1076 34.128 87.9994 36.0601C87.9994 37.7493 88.6325 39.1698 89.8868 40.2739C90.6721 40.9621 91.9504 41.6761 93.7856 42.46C95.5808 43.2291 96.7789 43.8364 97.3439 44.2485C98.3056 44.9772 98.7745 45.8605 98.7745 46.9535C98.7745 47.6859 98.4258 48.3189 97.7166 48.8783C97.0033 49.4303 96.238 49.6989 95.3724 49.6989C94.6512 49.6989 93.99 49.5002 93.3449 49.088C92.6917 48.6648 92.283 48.168 92.0947 47.5681L91.9063 46.9682L89.9709 47.4835L90.1592 48.0833C90.4758 49.0843 91.149 49.9271 92.1668 50.5969C93.1565 51.2336 94.2344 51.5574 95.3724 51.5574C96.7308 51.5574 97.969 51.1195 99.059 50.2547C100.209 49.3383 100.79 48.2305 100.79 46.9572C100.79 45.3747 100.141 44.0535 98.8706 43.0341C98.1413 42.4305 96.8751 41.7534 94.9998 40.9658C93.2767 40.2297 92.0866 39.6004 91.4615 39.0999C90.4838 38.3013 90.011 37.3113 90.011 36.1042C90.0791 34.7278 90.604 33.6974 91.6138 32.954C92.5595 32.2621 93.8417 31.9125 95.4205 31.9125C96.5185 31.9125 97.5924 32.2179 98.5982 32.8215C99.636 33.4508 100.289 34.2016 100.594 35.1143L100.79 35.7031L102.721 35.1879L102.517 34.5806C102.084 33.2631 101.147 32.1554 99.7362 31.2942Z" fill="url(#paint4_linear_2_35)"/>
<path d="M142.68 38.4264C142.115 38.7392 141.606 39.0999 141.161 39.5158V37.672H139.142V51.3145H141.161V43.0782C141.494 41.9631 142.147 41.0725 143.149 40.3659C144.191 39.6372 145.325 39.2839 146.619 39.2839H147.629V37.4291H146.619C145.216 37.4291 143.894 37.764 142.68 38.4264Z" fill="url(#paint5_linear_2_35)"/>
<path d="M157.45 37.672H153.896V30.054H151.876V37.672H148.322V39.5268H151.876V51.3145H153.896V39.5268H157.45V37.672Z" fill="url(#paint6_linear_2_35)"/>
<path d="M160.171 39.8397C160.728 39.4606 161.481 39.2693 162.415 39.2693C163.06 39.2693 163.669 39.4349 164.278 39.7808C164.887 40.1267 165.272 40.5426 165.452 41.0468L165.665 41.6356L167.56 41.0726L167.356 40.4801C167.043 39.5747 166.378 38.8166 165.38 38.2388C164.45 37.6904 163.453 37.4144 162.415 37.4144C161.004 37.4144 159.818 37.7493 158.889 38.4081C157.863 39.1368 157.302 40.1709 157.226 41.5179C157.226 42.6735 157.67 43.634 158.54 44.3737C159.073 44.8411 159.918 45.3122 161.137 45.8237C162.607 46.4273 163.192 46.7438 163.417 46.8947C163.978 47.2921 164.238 47.7522 164.238 48.3336C164.238 48.5618 164.178 48.9041 163.657 49.2794C163.26 49.5665 162.844 49.7063 162.383 49.7063C161.986 49.7063 161.617 49.5996 161.265 49.3898C160.904 49.169 160.684 48.9151 160.584 48.6133L160.387 48.0024L158.464 48.5618L158.656 49.1506C158.889 49.8646 159.378 50.4571 160.115 50.9135C160.82 51.344 161.581 51.5612 162.383 51.5612C163.345 51.5612 164.218 51.2631 164.987 50.6779C165.829 50.0412 166.254 49.2537 166.254 48.3373C166.254 47.2553 165.805 46.35 164.919 45.6471C164.422 45.2496 163.581 44.8117 162.347 44.3075C160.952 43.737 160.351 43.3801 160.087 43.174C159.522 42.7397 159.245 42.2061 159.245 41.5694C159.289 40.7965 159.59 40.2335 160.171 39.8397Z" fill="url(#paint7_linear_2_35)"/>
<path d="M186.189 47.9287L171.471 30.3263H170.653L170.405 30.0355V30.3263H169.764V51.3145H171.767V33.7121L186.481 51.3145H187.303L187.547 51.6052V51.3145H188.188V30.3263H186.189V47.9287Z" fill="white"/>
<path d="M207.382 30.3263V32.1664H215.232V51.3145H217.252V32.1664H225.082V30.3263H207.382Z" fill="white"/>
<path d="M196.824 40.0935C196.896 40.2223 196.948 40.4947 196.828 40.7523C196.78 40.8921 196.743 41.0541 196.731 41.1534L196.792 41.227C196.844 41.2896 196.992 41.4994 196.964 41.7459H206.689V39.8911H196.743L196.824 40.0935Z" fill="white"/>
<path d="M197.445 31.1617H197.669L197.958 32.1664H206.685V30.3263H197.008L197.445 31.1617Z" fill="white"/>
<path d="M196.427 41.3153L196.279 41.135C196.231 40.9326 196.399 40.4394 196.399 40.4394C196.495 40.2591 196.399 40.0788 196.399 40.0788L196.179 39.5636L196.154 39.1146L196.179 38.9784C196.399 38.5957 197.3 36.1741 197.3 36.1741L197.228 36.0158C198.01 34.4701 197.473 32.4718 197.473 32.4718L197.593 32.3835L197.313 31.4082H197.152L196.275 29.73C196.251 29.6196 196.154 29.4982 196.154 29.4982C195.958 29.3878 195.714 28.5487 195.714 28.5487C195.593 28.2359 195.153 27.8715 195.153 27.8715C194.932 27.7133 194.836 27.8458 194.836 27.8458C194.031 27.7353 193.618 28.0003 193.618 28.0003C192.616 28.6296 193.205 29.6123 193.205 29.6123C192.969 29.8772 193.662 30.2232 193.662 30.2232L193.614 30.4697L192.833 31.6364C192.32 32.5123 193.125 33.9255 193.125 33.9255C193.345 34.3744 193.173 35.4049 193.173 35.4049C193.053 35.5852 193.221 37.7602 193.221 37.7602C192.905 38.1872 193.149 38.5 193.149 38.5L192.833 38.8349C192.147 39.0594 192.516 39.3501 192.516 39.3501C192.272 39.4384 192.42 39.8433 192.42 39.8433C191.907 40.0015 192.248 40.4026 192.248 40.4026C192.296 40.7633 192.027 42.2207 192.151 42.2869L192.127 42.4893L192.224 42.5335L192.175 43.0708C192.175 43.4278 191.638 43.9688 191.638 43.9688C191.15 44.2595 190.977 44.9992 190.977 44.9992C190.805 45.3341 190.344 46.0297 190.344 46.0297C190.196 45.9414 189.855 46.8357 189.855 46.8357C189.635 46.8577 189.563 47.3067 189.563 47.3067C189.05 47.6195 188.954 48.3372 188.954 48.3372C188.93 48.6279 188.757 48.7862 188.757 48.7862C188.124 49.57 188.954 50.0632 188.954 50.0632C189.539 50.6005 189.831 49.7025 189.831 49.7025C189.807 49.5001 189.903 49.1431 189.903 49.1431C190.076 48.7383 190.416 48.2893 190.416 48.2893L191.049 48.4697C191.342 48.5138 191.073 48.3813 191.073 48.3813L190.464 48.1569C190.537 48.0207 190.513 47.7299 190.513 47.7299L190.537 47.6195C190.733 47.3951 190.757 47.0123 190.757 47.0123C190.953 46.5633 191.783 45.7132 191.783 45.7132C192.368 45.3783 192.905 44.3 192.905 44.3C193.37 44.0755 193.686 43.2695 193.686 43.2695C193.858 43.2695 194.103 43.1113 194.103 43.1113L194.347 43.402C194.251 43.7148 194.496 43.6265 194.496 43.6265L194.644 43.8731C194.984 45.0839 194.644 45.9818 194.644 45.9818C194.155 46.4529 194.472 47.3288 194.472 47.3288L194.275 48.0685C194.127 47.9802 194.227 48.3151 194.227 48.3151C194.007 49.2572 193.566 49.4597 193.566 49.4597C193.273 49.5737 193.029 49.8866 193.029 49.8866C192.857 50.2693 193.662 50.7624 193.662 50.7624C194.223 50.9207 194.027 51.2998 194.027 51.2998C194.223 51.7267 194.54 51.8591 194.54 51.8591C195.345 52.2198 195.077 51.5242 195.077 51.5242C194.588 50.9428 194.808 49.9786 194.808 49.9786L195.173 50.1368C195.233 50.1405 195.273 50.1515 195.297 50.1662C195.293 50.1515 195.293 50.1368 195.293 50.1147L194.928 49.8902L195.149 49.7099C195.369 49.4412 195.125 49.5075 195.125 49.5075C195.028 49.7099 194.856 49.4854 194.856 49.4854C195.028 49.2168 195.173 48.4549 195.173 48.4549C195.321 48.1863 195.173 48.2084 195.173 48.2084C195.93 47.0197 195.882 45.8089 195.882 45.8089C196.299 45.1354 196.275 43.8142 196.275 43.8142L196.423 43.77C196.619 43.321 196.303 42.3568 196.303 42.3568C196.523 42.1323 196.375 41.6613 196.375 41.6613C196.647 41.584 196.427 41.3153 196.427 41.3153ZM196.11 33.6679C196.11 33.6679 196.427 33.4875 196.158 33.0165C196.158 33.0165 196.183 32.1884 195.449 31.9639C195.449 31.9639 194.816 31.8977 194.572 32.4571C194.572 32.4571 194.279 33.0864 194.351 33.263L194.179 33.1526C194.179 33.1526 194.107 32.5233 193.814 32.4129C193.814 32.4129 194.179 31.5849 193.987 31.0218L194.159 30.639L194.379 30.5949C194.379 30.5949 195.281 30.2379 195.549 29.811C195.549 29.811 195.722 29.7889 195.914 30.5286L196.207 31.6032L196.11 31.6474C196.11 31.6474 196.331 32.0743 196.259 32.4313C196.259 32.4313 196.355 32.5196 196.431 32.7441L196.455 33.62L196.162 34.069L196.11 33.6679Z" fill="url(#paint8_linear_2_35)"/>
<path d="M195.309 50.1774C195.325 50.2901 195.403 50.2224 195.309 50.1774V50.1774Z" fill="black"/>
<path d="M117.011 44.4914C117.011 45.9451 116.466 47.1485 115.352 48.1753C114.238 49.202 112.923 49.6989 111.341 49.6989C110.034 49.6989 108.9 49.3456 107.871 48.6206C106.865 47.9103 106.208 47.0197 105.867 45.9046V43.0819C106.212 41.9631 106.869 41.0761 107.871 40.3659C108.9 39.6409 110.034 39.2876 111.341 39.2876C112.923 39.2876 114.234 39.7881 115.352 40.8112C115.829 41.2491 116.197 41.7239 116.466 42.2354C116.534 42.3679 116.598 42.5004 116.654 42.6366C116.602 42.8169 116.43 42.9935 116.253 43.1481C116.261 43.1518 116.273 43.1518 116.285 43.1555L116.878 43.3284L119.006 43.943C118.874 42.2391 118.129 40.7449 116.778 39.5047C115.28 38.1283 113.452 37.4327 111.345 37.4327C109.93 37.4327 108.604 37.7676 107.39 38.4301C106.829 38.7429 106.32 39.1072 105.871 39.5268V37.6756H103.851V58.9362H105.871V49.467C106.32 49.8829 106.829 50.2509 107.394 50.5674C108.604 51.2262 109.934 51.5611 111.345 51.5611C113.452 51.5611 115.284 50.8618 116.778 49.4891C118.145 48.2342 118.89 46.7216 119.01 44.9956L117.015 44.4325C117.007 44.4472 117.011 44.4693 117.011 44.4914Z" fill="url(#paint9_linear_2_35)"/>
<path d="M134.69 39.501C133.191 38.1246 131.36 37.4291 129.24 37.4291C128.643 37.4291 128.07 37.4916 127.517 37.602C127.637 37.856 127.706 38.1835 127.641 38.6178C128.094 38.6472 129.016 38.776 129.741 39.3023C131.104 39.398 132.262 39.8911 133.267 40.8075C134.385 41.8343 134.926 43.0377 134.926 44.4914C134.926 45.9451 134.381 47.1485 133.267 48.1753C132.25 49.1027 131.076 49.5959 129.693 49.6842L129.609 49.7725C130.05 49.9381 130.787 50.3393 131.216 51.2777C131.216 51.2777 131.228 51.2961 131.248 51.3182C132.534 51.0091 133.688 50.4018 134.69 49.4818C136.177 48.1054 136.926 46.4272 136.926 44.4914C136.93 42.5556 136.177 40.8774 134.69 39.501Z" fill="url(#paint10_linear_2_35)"/>
<path d="M127.405 50.9796C127.084 50.7919 126.692 50.354 126.836 49.629L126.9 49.2536C126.299 49.0034 125.742 48.6464 125.229 48.1753C124.732 47.719 124.36 47.2295 124.087 46.6959C123.815 46.6333 123.562 46.4971 123.462 46.2432L121.671 45.739C121.931 47.1559 122.645 48.4145 123.811 49.4818C124.845 50.4313 126.043 51.0532 127.381 51.3476L127.405 50.9796Z" fill="url(#paint11_linear_2_35)"/>
<path d="M124.869 38.9711L124.756 38.7614C124.428 38.9822 124.111 39.2251 123.811 39.5011C122.312 40.8775 121.555 42.5557 121.555 44.4914C121.555 44.554 121.563 44.6166 121.563 44.6828L123.634 45.2827C123.594 45.0251 123.57 44.7638 123.57 44.4914C123.57 43.2144 123.991 42.1288 124.849 41.1903C124.84 41.0247 124.828 40.8701 124.812 40.7376C124.78 40.4285 124.832 39.928 125.165 39.6704C125.057 39.5268 124.941 39.3023 124.869 38.9711Z" fill="url(#paint12_linear_2_35)"/>
<path d="M128.239 36.8439C128.307 36.8255 128.379 36.7998 128.451 36.7556C128.451 36.7519 128.371 36.7888 128.239 36.8439Z" fill="black"/>
<path d="M133.211 52.6725C132.045 52.8381 131.011 51.3513 131.011 51.3513C130.426 50.0742 129.216 49.8681 129.216 49.8681L131.504 47.476C131.953 46.8577 132.626 46.8173 132.626 46.8173C132.446 46.2395 133.704 46.2799 133.704 46.2799C133.48 44.3846 131.909 42.7322 131.909 42.7322C131.324 42.2796 130.246 40.1745 130.246 40.1745C129.485 38.7723 127.373 38.8128 127.373 38.8128C127.641 37.705 127.06 37.2634 126.748 37.1125C127.193 37.2156 127.89 36.98 128.239 36.8402C127.661 36.98 127.193 36.255 127.193 36.255C126.519 35.2651 125.89 35.5116 125.89 35.5116C125.037 35.5116 125.666 36.6672 125.666 36.6672C125.261 36.6672 124.632 37.4106 124.632 37.4106C124.139 38.316 124.857 38.4816 124.857 38.4816L125.081 38.8937C125.217 39.5525 125.53 39.7181 125.53 39.7181C124.945 39.8432 125.037 40.7081 125.037 40.7081C125.125 41.573 125.125 43.3468 125.125 43.3468C124.857 43.5124 124.452 45.1612 124.452 45.1612C124.139 45.2421 123.915 45.5733 123.915 45.5733L116.237 43.3468C115.789 43.2658 116.057 43.0156 116.057 43.0156C117.135 42.1066 115.608 42.3973 115.608 42.3973C114.486 43.5529 116.325 44.0056 116.325 44.0056L123.642 46.0665C123.731 46.6038 124.676 46.5192 124.676 46.5192C125.754 47.5496 126.471 46.8504 126.471 46.8504L127.505 47.0969L127.056 49.6547C126.876 50.5637 127.641 50.8508 127.641 50.8508L127.417 53.53C126.88 54.6451 125.353 54.6856 125.353 54.6856C124.592 54.8512 124.905 55.3443 124.905 55.3443C125.714 56.2092 127.241 55.3848 127.241 55.3848C127.826 55.3443 128.319 55.0131 128.319 55.0131C128.904 54.807 128.455 53.8575 128.455 53.8575C128.816 53.4453 129.352 51.918 129.352 51.918C130.791 52.5363 131.641 53.6919 131.641 53.6919C131.596 54.2292 132.089 54.7224 132.089 54.7224L131.953 55.5062C131.817 56.1245 132.402 55.9589 132.402 55.9589C133.255 55.6277 133.211 54.3507 133.211 54.3507C134.245 52.6283 133.211 52.6725 133.211 52.6725ZM127.645 46.6516L126.836 46.486L126.792 45.9929L127.87 45.29L127.645 46.6516ZM127.285 44.5466C127.285 44.5466 126.612 45.2495 126.071 45.4961L125.173 45.8678L125.129 45.4556C125.129 45.4556 126.295 44.3846 126.119 43.6007L126.207 41.7864C126.207 41.7864 126.924 42.5298 127.597 42.7764L128.271 43.4793L127.285 44.5466Z" fill="white"/>
<path d="M132.638 30.9225C133.075 31.5592 133.616 32.1075 134.233 32.5823L134.409 32.6485L134.478 32.7111C134.49 32.7221 134.87 33.0497 135.588 33.138L135.704 33.1674C135.708 33.1674 136.205 33.3515 136.657 33.219C136.669 33.2116 137.022 33.0902 137.483 33.1895C137.659 33.1638 137.94 33.138 138.228 33.1564C138.18 33.0423 138.132 32.9503 138.104 32.9172L138.044 32.8436C137.952 32.6927 137.856 32.4792 137.807 32.2363C137.299 32.1223 136.806 31.9456 136.333 31.7027C135.712 31.3789 135.179 30.9593 134.738 30.4478L146.855 26.2192L146.611 25.4096C146.178 23.8712 145.265 22.5868 143.882 21.5932C142.496 20.6142 140.909 20.1211 139.174 20.1211C137.054 20.1211 135.219 20.8167 133.724 22.193C132.226 23.5694 131.468 25.2476 131.468 27.1834C131.468 28.2212 131.713 29.2149 132.194 30.146C132.39 30.5214 132.534 30.768 132.638 30.9225ZM135.143 23.4922C136.261 22.4654 137.579 21.9686 139.17 21.9686C140.428 21.9686 141.534 22.2998 142.548 22.9769C143.381 23.5474 143.986 24.2429 144.375 25.0894L133.764 28.8064C133.576 28.2875 133.484 27.7391 133.484 27.1761C133.484 25.7224 134.025 24.5189 135.143 23.4922Z" fill="url(#paint13_linear_2_35)"/>
<path d="M141.614 33.1858C141.734 33.1821 141.871 33.1895 142.011 33.2263C142.103 33.2299 142.259 33.2336 142.383 33.2263C142.528 33.1858 142.816 33.1343 143.149 33.2152C143.397 33.0754 143.646 32.9282 143.882 32.7589C145.261 31.7689 146.174 30.4845 146.607 28.9462L146.775 28.3463L144.836 27.8789L144.664 28.4861C144.339 29.638 143.674 30.5581 142.632 31.2941C142.444 31.4303 142.251 31.5444 142.055 31.6548C142.119 31.9382 142.115 32.2952 141.935 32.6521L141.614 33.1858Z" fill="url(#paint14_linear_2_35)"/>
<path d="M139.162 37.3261L140.083 37.3003H140.087L141.221 37.2672L140.612 36.0858L140.644 35.6994L140.408 35.4197L140.492 35.1547C141.133 35.405 142.64 34.426 142.64 34.426L143.281 34.4113C143.838 34.5364 144.583 33.9292 144.583 33.9292C144.94 33.5575 145.345 33.5428 145.345 33.5428C145.633 33.9476 145.986 33.4029 145.986 33.4029L146.106 33.1858C146.274 32.9356 146.647 33.0938 146.647 33.0938C146.919 33.0938 146.883 32.8767 146.883 32.8767C147.088 32.689 146.715 32.6264 146.715 32.6264C146.511 32.3467 146.206 32.4866 146.206 32.4866C145.986 32.4571 145.765 32.5786 145.765 32.5786C145.461 32.608 145.04 32.9981 145.04 32.9981C144.551 33.3404 143.197 33.6201 143.197 33.6201C142.808 33.4508 142.472 33.5906 142.472 33.5906C142.251 33.6054 141.931 33.5906 141.931 33.5906C141.526 33.4655 141.137 33.6826 141.137 33.6826L141.037 33.2337L141.526 32.4277C141.814 31.8536 141.474 31.342 141.474 31.342C141.458 31.2942 141.269 31.0918 141.269 31.0918C141.049 30.7826 140.544 30.8599 140.544 30.8599C140.46 30.7826 140.544 30.5508 140.544 30.5508L140.612 30.5029C140.901 29.9914 140.68 30.0981 140.68 30.0981C140.817 29.5866 140.376 29.2443 140.376 29.2443C139.767 28.9168 139.378 29.4467 139.378 29.4467C139.31 29.5571 139.326 30.0208 139.326 30.0208C139.09 30.0503 139.446 30.5324 139.446 30.5324L139.43 30.7495C139.005 30.6391 138.485 31.1838 138.485 31.1838C137.928 31.7579 138.432 32.5823 138.432 32.5823C138.637 32.7847 138.837 33.4986 138.837 33.4986L138.753 33.6679C138.396 33.4029 137.451 33.5575 137.451 33.5575C137.078 33.4471 136.79 33.5575 136.79 33.5575C136.164 33.7452 135.523 33.495 135.523 33.495C134.626 33.3845 134.153 32.9503 134.153 32.9503L133.596 32.7479L133.239 32.7331C132.919 32.6227 132.63 32.9024 132.63 32.9024C132.51 33.0276 132.662 33.1969 132.662 33.1969L133.067 33.3073C133.472 33.322 133.64 33.7121 133.64 33.7121C133.929 34.0543 134.197 33.7121 134.197 33.7121C134.333 33.5428 134.433 33.7121 134.433 33.7121L135.143 34.1169C135.624 34.6137 136.513 34.426 136.513 34.426C137.07 34.334 137.29 34.5953 137.29 34.5953C137.543 34.8456 139.234 35.2026 139.234 35.2026L139.318 35.497L139.014 35.854L138.841 36.2882L139.25 36.5532L139.046 37.3297L139.162 37.3261ZM140.039 35.0774C140.039 35.0774 140.007 35.497 139.855 35.589C139.855 35.589 139.651 35.3093 139.671 35.1216C139.671 35.1253 139.839 34.9523 140.039 35.0774Z" fill="white"/>
<defs>
<linearGradient id="paint0_linear_2_35" x1="38.2769" y1="36.247" x2="80.8859" y2="36.247" gradientUnits="userSpaceOnUse">
<stop offset="0.005618" stop-color="#FBC926"/>
<stop offset="0.2528" stop-color="#FFFBCC"/>
<stop offset="0.3045" stop-color="#F8F0BB"/>
<stop offset="0.4072" stop-color="#E7D28E"/>
<stop offset="0.55" stop-color="#CCA246"/>
<stop offset="0.5955" stop-color="#C3922E"/>
<stop offset="0.8708" stop-color="#EED688"/>
<stop offset="1" stop-color="#FFFBCC"/>
</linearGradient>
<linearGradient id="paint1_linear_2_35" x1="0.00100177" y1="50.7261" x2="71.023" y2="50.7261" gradientUnits="userSpaceOnUse">
<stop offset="0.005618" stop-color="#FBC926"/>
<stop offset="0.2528" stop-color="#FFFBCC"/>
<stop offset="0.3045" stop-color="#F8F0BB"/>
<stop offset="0.4072" stop-color="#E7D28E"/>
<stop offset="0.55" stop-color="#CCA246"/>
<stop offset="0.5955" stop-color="#C3922E"/>
<stop offset="0.8708" stop-color="#EED688"/>
<stop offset="1" stop-color="#FFFBCC"/>
</linearGradient>
<linearGradient id="paint2_linear_2_35" x1="87.9986" y1="23.5036" x2="113.949" y2="23.5036" gradientUnits="userSpaceOnUse">
<stop offset="0.005618" stop-color="#FBC926"/>
<stop offset="0.2528" stop-color="#FFFBCC"/>
<stop offset="0.3045" stop-color="#F8F0BB"/>
<stop offset="0.4072" stop-color="#E7D28E"/>
<stop offset="0.55" stop-color="#CCA246"/>
<stop offset="0.5955" stop-color="#C3922E"/>
<stop offset="0.8708" stop-color="#EED688"/>
<stop offset="1" stop-color="#FFFBCC"/>
</linearGradient>
<linearGradient id="paint3_linear_2_35" x1="114.613" y1="23.3677" x2="129.384" y2="23.3677" gradientUnits="userSpaceOnUse">
<stop offset="0.005618" stop-color="#FBC926"/>
<stop offset="0.2528" stop-color="#FFFBCC"/>
<stop offset="0.3045" stop-color="#F8F0BB"/>
<stop offset="0.4072" stop-color="#E7D28E"/>
<stop offset="0.55" stop-color="#CCA246"/>
<stop offset="0.5955" stop-color="#C3922E"/>
<stop offset="0.8708" stop-color="#EED688"/>
<stop offset="1" stop-color="#FFFBCC"/>
</linearGradient>
<linearGradient id="paint4_linear_2_35" x1="87.9986" y1="40.8051" x2="102.729" y2="40.8051" gradientUnits="userSpaceOnUse">
<stop offset="0.005618" stop-color="#FBC926"/>
<stop offset="0.2528" stop-color="#FFFBCC"/>
<stop offset="0.3045" stop-color="#F8F0BB"/>
<stop offset="0.4072" stop-color="#E7D28E"/>
<stop offset="0.55" stop-color="#CCA246"/>
<stop offset="0.5955" stop-color="#C3922E"/>
<stop offset="0.8708" stop-color="#EED688"/>
<stop offset="1" stop-color="#FFFBCC"/>
</linearGradient>
<linearGradient id="paint5_linear_2_35" x1="139.142" y1="44.3716" x2="147.627" y2="44.3716" gradientUnits="userSpaceOnUse">
<stop offset="0.005618" stop-color="#FBC926"/>
<stop offset="0.2528" stop-color="#FFFBCC"/>
<stop offset="0.3045" stop-color="#F8F0BB"/>
<stop offset="0.4072" stop-color="#E7D28E"/>
<stop offset="0.55" stop-color="#CCA246"/>
<stop offset="0.5955" stop-color="#C3922E"/>
<stop offset="0.8708" stop-color="#EED688"/>
<stop offset="1" stop-color="#FFFBCC"/>
</linearGradient>
<linearGradient id="paint6_linear_2_35" x1="148.324" y1="40.6841" x2="157.451" y2="40.6841" gradientUnits="userSpaceOnUse">
<stop offset="0.005618" stop-color="#FBC926"/>
<stop offset="0.2528" stop-color="#FFFBCC"/>
<stop offset="0.3045" stop-color="#F8F0BB"/>
<stop offset="0.4072" stop-color="#E7D28E"/>
<stop offset="0.55" stop-color="#CCA246"/>
<stop offset="0.5955" stop-color="#C3922E"/>
<stop offset="0.8708" stop-color="#EED688"/>
<stop offset="1" stop-color="#FFFBCC"/>
</linearGradient>
<linearGradient id="paint7_linear_2_35" x1="157.226" y1="44.4851" x2="167.561" y2="44.4851" gradientUnits="userSpaceOnUse">
<stop offset="0.005618" stop-color="#FBC926"/>
<stop offset="0.2528" stop-color="#FFFBCC"/>
<stop offset="0.3045" stop-color="#F8F0BB"/>
<stop offset="0.4072" stop-color="#E7D28E"/>
<stop offset="0.55" stop-color="#CCA246"/>
<stop offset="0.5955" stop-color="#C3922E"/>
<stop offset="0.8708" stop-color="#EED688"/>
<stop offset="1" stop-color="#FFFBCC"/>
</linearGradient>
<linearGradient id="paint8_linear_2_35" x1="188.522" y1="39.893" x2="197.658" y2="39.893" gradientUnits="userSpaceOnUse">
<stop offset="0.005618" stop-color="#FBC926"/>
<stop offset="0.2528" stop-color="#FFFBCC"/>
<stop offset="0.3045" stop-color="#F8F0BB"/>
<stop offset="0.4072" stop-color="#E7D28E"/>
<stop offset="0.55" stop-color="#CCA246"/>
<stop offset="0.5955" stop-color="#C3922E"/>
<stop offset="0.8708" stop-color="#EED688"/>
<stop offset="1" stop-color="#FFFBCC"/>
</linearGradient>
<linearGradient id="paint9_linear_2_35" x1="103.845" y1="48.1802" x2="119.003" y2="48.1802" gradientUnits="userSpaceOnUse">
<stop offset="0.005618" stop-color="#FBC926"/>
<stop offset="0.2528" stop-color="#FFFBCC"/>
<stop offset="0.3045" stop-color="#F8F0BB"/>
<stop offset="0.4072" stop-color="#E7D28E"/>
<stop offset="0.55" stop-color="#CCA246"/>
<stop offset="0.5955" stop-color="#C3922E"/>
<stop offset="0.8708" stop-color="#EED688"/>
<stop offset="1" stop-color="#FFFBCC"/>
</linearGradient>
<linearGradient id="paint10_linear_2_35" x1="127.519" y1="44.374" x2="136.931" y2="44.374" gradientUnits="userSpaceOnUse">
<stop offset="0.005618" stop-color="#FBC926"/>
<stop offset="0.2528" stop-color="#FFFBCC"/>
<stop offset="0.3045" stop-color="#F8F0BB"/>
<stop offset="0.4072" stop-color="#E7D28E"/>
<stop offset="0.55" stop-color="#CCA246"/>
<stop offset="0.5955" stop-color="#C3922E"/>
<stop offset="0.8708" stop-color="#EED688"/>
<stop offset="1" stop-color="#FFFBCC"/>
</linearGradient>
<linearGradient id="paint11_linear_2_35" x1="121.669" y1="48.5441" x2="127.406" y2="48.5441" gradientUnits="userSpaceOnUse">
<stop offset="0.005618" stop-color="#FBC926"/>
<stop offset="0.2528" stop-color="#FFFBCC"/>
<stop offset="0.3045" stop-color="#F8F0BB"/>
<stop offset="0.4072" stop-color="#E7D28E"/>
<stop offset="0.55" stop-color="#CCA246"/>
<stop offset="0.5955" stop-color="#C3922E"/>
<stop offset="0.8708" stop-color="#EED688"/>
<stop offset="1" stop-color="#FFFBCC"/>
</linearGradient>
<linearGradient id="paint12_linear_2_35" x1="121.551" y1="42.0228" x2="125.165" y2="42.0228" gradientUnits="userSpaceOnUse">
<stop offset="0.005618" stop-color="#FBC926"/>
<stop offset="0.2528" stop-color="#FFFBCC"/>
<stop offset="0.3045" stop-color="#F8F0BB"/>
<stop offset="0.4072" stop-color="#E7D28E"/>
<stop offset="0.55" stop-color="#CCA246"/>
<stop offset="0.5955" stop-color="#C3922E"/>
<stop offset="0.8708" stop-color="#EED688"/>
<stop offset="1" stop-color="#FFFBCC"/>
</linearGradient>
<linearGradient id="paint13_linear_2_35" x1="131.463" y1="26.6879" x2="146.853" y2="26.6879" gradientUnits="userSpaceOnUse">
<stop offset="0.005618" stop-color="#FBC926"/>
<stop offset="0.2528" stop-color="#FFFBCC"/>
<stop offset="0.3045" stop-color="#F8F0BB"/>
<stop offset="0.4072" stop-color="#E7D28E"/>
<stop offset="0.55" stop-color="#CCA246"/>
<stop offset="0.5955" stop-color="#C3922E"/>
<stop offset="0.8708" stop-color="#EED688"/>
<stop offset="1" stop-color="#FFFBCC"/>
</linearGradient>
<linearGradient id="paint14_linear_2_35" x1="141.616" y1="30.5546" x2="146.777" y2="30.5546" gradientUnits="userSpaceOnUse">
<stop offset="0.005618" stop-color="#FBC926"/>
<stop offset="0.2528" stop-color="#FFFBCC"/>
<stop offset="0.3045" stop-color="#F8F0BB"/>
<stop offset="0.4072" stop-color="#E7D28E"/>
<stop offset="0.55" stop-color="#CCA246"/>
<stop offset="0.5955" stop-color="#C3922E"/>
<stop offset="0.8708" stop-color="#EED688"/>
<stop offset="1" stop-color="#FFFBCC"/>
</linearGradient>
</defs>
</svg>
